<?xml version="1.0" encoding="UTF-8"?>
<svg xmlns="http://www.w3.org/2000/svg" xmlns:xlink="http://www.w3.org/1999/xlink" width="40pt" height="40pt" viewBox="0 0 40 40" version="1.1">
<g id="surface141238">
<path style=" stroke:none;fill-rule:nonzero;fill:rgb(100%,45.098039%,45.098039%);fill-opacity:1;" d="M 23.894531 2.40625 C 23.808594 2.417969 23.726562 2.445312 23.644531 2.480469 C 22.957031 2.820312 22.175781 3.835938 22.023438 4.035156 C 22.015625 4.046875 22.007812 4.058594 22 4.070312 C 21.226562 5.226562 20.816406 6.582031 20.800781 7.992188 C 20.789062 9.046875 20.996094 10.09375 21.414062 11.101562 C 22.390625 13.445312 24.414062 15.382812 26.824219 16.289062 C 26.90625 16.316406 26.984375 16.34375 27.125 16.394531 C 27.136719 16.398438 27.257812 16.4375 27.273438 16.441406 L 27.363281 16.472656 C 27.488281 16.511719 27.617188 16.554688 27.742188 16.578125 C 28.375 16.707031 28.992188 16.777344 29.574219 16.796875 C 29.675781 16.796875 29.773438 16.800781 29.875 16.800781 C 34.257812 16.800781 35.960938 13.707031 36.523438 12.675781 C 36.582031 12.574219 36.621094 12.492188 36.660156 12.445312 C 36.660156 12.441406 36.660156 12.441406 36.664062 12.4375 C 36.910156 12.070312 36.816406 11.574219 36.449219 11.324219 C 36.085938 11.078125 35.589844 11.171875 35.339844 11.539062 L 35.335938 11.539062 C 34.167969 13.257812 32.167969 13.78125 29.398438 13.09375 C 29.191406 13.042969 28.964844 12.964844 28.765625 12.890625 C 28.503906 12.796875 28.242188 12.6875 27.996094 12.570312 C 27.511719 12.328125 27.054688 12.039062 26.644531 11.722656 C 24.207031 9.832031 23.253906 5.898438 24.679688 3.625 C 24.867188 3.320312 24.835938 2.929688 24.59375 2.664062 C 24.414062 2.460938 24.148438 2.371094 23.894531 2.40625 Z M 16.804688 4 C 16.625 3.996094 16.441406 4.054688 16.289062 4.179688 C 15.082031 5.164062 13.84375 6.777344 13.789062 6.84375 C 13.785156 6.855469 13.777344 6.867188 13.769531 6.878906 C 11.582031 10.0625 11.414062 14.59375 13.351562 18.421875 C 13.652344 19.027344 13.996094 19.605469 14.363281 20.136719 L 14.472656 20.292969 C 14.78125 20.746094 15.128906 21.257812 15.570312 21.660156 C 15.726562 21.835938 15.890625 22.003906 16.054688 22.164062 L 16.132812 22.246094 L 16.195312 22.3125 C 16.363281 22.472656 16.53125 22.632812 16.707031 22.789062 L 16.710938 22.789062 C 16.722656 22.808594 16.742188 22.820312 16.757812 22.835938 C 16.953125 23.011719 17.152344 23.179688 17.417969 23.386719 L 17.492188 23.441406 C 17.695312 23.605469 17.90625 23.761719 18.121094 23.914062 C 18.144531 23.929688 18.164062 23.945312 18.1875 23.960938 C 18.261719 24.011719 18.335938 24.058594 18.414062 24.113281 L 18.488281 24.164062 L 18.574219 24.21875 C 18.734375 24.324219 18.890625 24.421875 19.113281 24.550781 C 19.257812 24.636719 19.410156 24.726562 19.507812 24.773438 C 19.554688 24.800781 19.601562 24.824219 19.710938 24.882812 L 19.953125 25.011719 C 19.964844 25.019531 20.023438 25.042969 20.035156 25.050781 C 20.195312 25.132812 20.359375 25.210938 20.523438 25.285156 L 20.777344 25.398438 C 20.945312 25.46875 21.113281 25.539062 21.320312 25.617188 L 21.414062 25.648438 C 21.417969 25.65625 21.496094 25.683594 21.503906 25.6875 C 21.652344 25.742188 21.804688 25.792969 21.960938 25.84375 L 22.308594 25.960938 C 22.484375 26.019531 22.6875 26.085938 22.910156 26.125 C 24 26.304688 25.058594 26.398438 26.0625 26.398438 C 26.179688 26.398438 26.300781 26.398438 26.414062 26.398438 C 35.246094 26.203125 37.542969 18.699219 37.566406 18.625 C 37.675781 18.246094 37.496094 17.84375 37.140625 17.675781 C 36.785156 17.507812 36.359375 17.625 36.136719 17.949219 C 33.898438 21.21875 29.667969 22.601562 25.359375 21.460938 C 25.160156 21.414062 24.964844 21.355469 24.726562 21.277344 C 24.683594 21.265625 24.648438 21.253906 24.585938 21.226562 C 24.445312 21.183594 24.304688 21.136719 24.148438 21.078125 L 23.929688 20.992188 C 23.800781 20.945312 23.671875 20.894531 23.515625 20.824219 L 23.414062 20.777344 C 23.222656 20.695312 23.039062 20.605469 22.871094 20.523438 L 22.414062 20.289062 C 22.3125 20.238281 22.222656 20.179688 22.082031 20.097656 L 22.003906 20.054688 L 21.925781 20.007812 C 21.808594 19.9375 21.695312 19.867188 21.585938 19.789062 L 21.511719 19.742188 C 21.507812 19.742188 21.445312 19.695312 21.4375 19.691406 C 21.34375 19.632812 21.253906 19.570312 21.164062 19.515625 C 20.972656 19.378906 20.78125 19.234375 20.558594 19.058594 L 20.472656 18.988281 C 18.410156 17.339844 16.882812 15.140625 16.167969 12.78125 C 15.503906 10.617188 15.996094 7.78125 17.492188 5.199219 C 17.683594 4.867188 17.613281 4.441406 17.316406 4.191406 C 17.167969 4.066406 16.988281 4 16.804688 4 Z M 8.003906 6.398438 C 7.8125 6.398438 7.617188 6.46875 7.464844 6.605469 C 5.9375 7.976562 4.792969 9.757812 4.667969 9.960938 C 1.398438 14.71875 2.03125 22.117188 4.273438 26.636719 C 4.320312 26.730469 4.367188 26.820312 4.414062 26.914062 L 4.445312 26.960938 C 4.484375 27.054688 4.53125 27.148438 4.546875 27.164062 C 4.570312 27.226562 4.609375 27.289062 4.625 27.308594 C 4.664062 27.386719 4.699219 27.457031 4.769531 27.574219 L 5.023438 28.015625 C 5.0625 28.074219 5.101562 28.136719 5.113281 28.160156 C 5.164062 28.242188 5.214844 28.324219 5.269531 28.410156 L 5.394531 28.609375 C 5.429688 28.667969 5.46875 28.722656 5.492188 28.753906 C 5.617188 28.945312 5.742188 29.140625 5.882812 29.324219 C 5.886719 29.335938 5.894531 29.339844 5.898438 29.347656 L 5.949219 29.414062 C 6.0625 29.578125 6.179688 29.734375 6.28125 29.863281 L 6.738281 30.441406 C 6.742188 30.445312 6.792969 30.507812 6.796875 30.511719 L 6.863281 30.585938 C 7 30.757812 7.148438 30.925781 7.292969 31.085938 C 7.316406 31.113281 7.335938 31.132812 7.359375 31.160156 C 7.5 31.3125 7.644531 31.464844 7.792969 31.625 L 7.9375 31.761719 C 8.054688 31.886719 8.175781 32.007812 8.300781 32.125 C 8.300781 32.128906 8.359375 32.183594 8.359375 32.183594 L 8.484375 32.300781 C 8.632812 32.445312 8.789062 32.585938 8.910156 32.6875 C 8.914062 32.695312 9.027344 32.792969 9.039062 32.800781 C 9.183594 32.929688 9.332031 33.054688 9.480469 33.179688 L 10.246094 33.785156 C 10.375 33.878906 10.507812 33.972656 10.65625 34.082031 C 10.707031 34.117188 10.757812 34.15625 10.8125 34.191406 C 10.835938 34.210938 10.859375 34.226562 10.875 34.238281 L 11.449219 34.621094 C 11.660156 34.757812 11.867188 34.886719 12.125 35.039062 L 12.261719 35.117188 C 12.421875 35.210938 12.585938 35.304688 12.738281 35.386719 C 12.828125 35.4375 12.917969 35.480469 12.996094 35.523438 C 13.105469 35.582031 13.226562 35.648438 13.40625 35.734375 C 13.421875 35.742188 13.550781 35.804688 13.566406 35.8125 C 13.746094 35.902344 13.929688 35.988281 14.164062 36.089844 C 14.164062 36.09375 14.238281 36.128906 14.238281 36.128906 C 14.449219 36.21875 14.65625 36.304688 14.929688 36.414062 C 14.972656 36.433594 15.015625 36.449219 15.023438 36.453125 C 15.21875 36.527344 15.421875 36.601562 15.585938 36.664062 C 15.601562 36.667969 15.6875 36.703125 15.703125 36.710938 C 15.925781 36.785156 16.144531 36.855469 16.425781 36.945312 C 16.472656 36.960938 16.523438 36.976562 16.527344 36.976562 L 16.6875 37.023438 C 16.882812 37.085938 17.074219 37.148438 17.285156 37.1875 C 18.773438 37.460938 20.226562 37.601562 21.601562 37.601562 C 33.0625 37.601562 36.710938 28.378906 36.75 28.285156 C 36.890625 27.914062 36.738281 27.492188 36.386719 27.300781 C 36.042969 27.109375 35.605469 27.199219 35.363281 27.515625 C 32.421875 31.386719 26.875 32.824219 20.523438 31.367188 C 20.371094 31.328125 20.214844 31.285156 20.0625 31.238281 L 19.761719 31.148438 C 19.558594 31.085938 19.355469 31.015625 19.160156 30.945312 C 19.15625 30.945312 19.066406 30.914062 19.066406 30.914062 C 18.890625 30.851562 18.714844 30.785156 18.5625 30.726562 L 18.386719 30.65625 C 18.195312 30.578125 18 30.496094 17.8125 30.414062 L 17.703125 30.367188 C 17.535156 30.289062 17.371094 30.210938 17.210938 30.132812 C 17.195312 30.125 17.070312 30.0625 17.054688 30.058594 C 16.945312 30.003906 16.832031 29.945312 16.6875 29.867188 L 16.035156 29.515625 C 15.96875 29.472656 15.898438 29.429688 15.835938 29.398438 C 15.636719 29.273438 15.433594 29.152344 15.234375 29.023438 C 15.1875 28.996094 15.148438 28.964844 15.070312 28.914062 C 14.929688 28.824219 14.796875 28.734375 14.601562 28.597656 L 14.523438 28.539062 C 14.386719 28.445312 14.257812 28.347656 14.148438 28.265625 C 14.078125 28.214844 14.007812 28.160156 13.898438 28.074219 C 13.796875 27.996094 13.695312 27.921875 13.601562 27.847656 L 13.429688 27.703125 C 13.28125 27.585938 13.144531 27.460938 13 27.335938 C 12.980469 27.320312 12.964844 27.304688 12.945312 27.289062 C 12.785156 27.144531 12.621094 26.996094 12.429688 26.8125 L 11.863281 26.25 C 11.726562 26.109375 11.585938 25.964844 11.429688 25.792969 C 11.289062 25.632812 11.148438 25.476562 10.964844 25.257812 L 10.628906 24.84375 C 10.585938 24.785156 10.542969 24.726562 10.492188 24.664062 C 10.375 24.507812 10.257812 24.351562 10.144531 24.191406 C 7.03125 19.902344 6.21875 10.953125 8.644531 7.675781 C 8.886719 7.347656 8.84375 6.882812 8.539062 6.605469 C 8.386719 6.46875 8.195312 6.398438 8.003906 6.398438 Z M 8.003906 6.398438 "/>
</g>
</svg>
